<?xml version="1.0" encoding="UTF-8"?>
<!DOCTYPE svg PUBLIC "-//W3C//DTD SVG 1.1//EN" "http://www.w3.org/Graphics/SVG/1.1/DTD/svg11.dtd">
<svg xmlns="http://www.w3.org/2000/svg" version="1.1" width="56px" height="55px" style="shape-rendering:geometricPrecision; text-rendering:geometricPrecision; image-rendering:optimizeQuality; fill-rule:evenodd; clip-rule:evenodd" xmlns:xlink="http://www.w3.org/1999/xlink">
<g><path style="opacity:0.749" fill="#919ef4" d="M 10.5,-0.5 C 14.1667,-0.5 17.8333,-0.5 21.5,-0.5C 21.5,3.16667 21.5,6.83333 21.5,10.5C 17.8333,10.5 14.1667,10.5 10.5,10.5C 10.5,6.83333 10.5,3.16667 10.5,-0.5 Z"/></g>
<g><path style="opacity:0.749" fill="#74b8f7" d="M 32.5,-0.5 C 36.1667,-0.5 39.8333,-0.5 43.5,-0.5C 43.5,3.16667 43.5,6.83333 43.5,10.5C 39.8333,10.5 36.1667,10.5 32.5,10.5C 32.5,6.83333 32.5,3.16667 32.5,-0.5 Z"/></g>
<g><path style="opacity:0.749" fill="#b280ef" d="M -0.5,10.5 C 3.16667,10.5 6.83333,10.5 10.5,10.5C 10.5,10.8333 10.5,11.1667 10.5,11.5C 9.52056,14.6248 9.18723,17.9581 9.5,21.5C 6.16667,21.5 2.83333,21.5 -0.5,21.5C -0.5,17.8333 -0.5,14.1667 -0.5,10.5 Z"/></g>
<g><path style="opacity:1" fill="#fefffe" d="M 10.5,10.5 C 14.1667,10.5 17.8333,10.5 21.5,10.5C 21.5,14.1667 21.5,17.8333 21.5,21.5C 21.1667,21.5 20.8333,21.5 20.5,21.5C 17.1667,21.5 13.8333,21.5 10.5,21.5C 10.5,18.1667 10.5,14.8333 10.5,11.5C 10.5,11.1667 10.5,10.8333 10.5,10.5 Z"/></g>
<g><path style="opacity:1" fill="#fefffe" d="M 32.5,10.5 C 36.1667,10.5 39.8333,10.5 43.5,10.5C 43.5,14.1667 43.5,17.8333 43.5,21.5C 43.1667,21.5 42.8333,21.5 42.5,21.5C 39.1667,21.5 35.8333,21.5 32.5,21.5C 32.5,18.1667 32.5,14.8333 32.5,11.5C 32.5,11.1667 32.5,10.8333 32.5,10.5 Z"/></g>
<g><path style="opacity:0.749" fill="#72baf7" d="M 43.5,10.5 C 47.5,10.5 51.5,10.5 55.5,10.5C 55.5,14.1667 55.5,17.8333 55.5,21.5C 51.5,21.5 47.5,21.5 43.5,21.5C 43.5,17.8333 43.5,14.1667 43.5,10.5 Z"/></g>
<g><path style="opacity:1" fill="#000000" d="M 10.5,11.5 C 10.5,14.8333 10.5,18.1667 10.5,21.5C 13.8333,21.5 17.1667,21.5 20.5,21.5C 17.3752,22.4794 14.0419,22.8128 10.5,22.5C 9.83333,22.5 9.5,22.1667 9.5,21.5C 9.18723,17.9581 9.52056,14.6248 10.5,11.5 Z"/></g>
<g><path style="opacity:1" fill="#000000" d="M 32.5,11.5 C 32.5,14.8333 32.5,18.1667 32.5,21.5C 35.8333,21.5 39.1667,21.5 42.5,21.5C 39.3752,22.4794 36.0419,22.8128 32.5,22.5C 31.8333,22.5 31.5,22.1667 31.5,21.5C 31.1872,17.9581 31.5206,14.6248 32.5,11.5 Z"/></g>
<g><path style="opacity:0.749" fill="#959bf3" d="M 21.5,10.5 C 25.1667,10.5 28.8333,10.5 32.5,10.5C 32.5,10.8333 32.5,11.1667 32.5,11.5C 31.5206,14.6248 31.1872,17.9581 31.5,21.5C 28.1667,21.5 24.8333,21.5 21.5,21.5C 21.5,17.8333 21.5,14.1667 21.5,10.5 Z"/></g>
<g><path style="opacity:0.749" fill="#b280ef" d="M 20.5,21.5 C 20.8333,21.5 21.1667,21.5 21.5,21.5C 21.5,25.1667 21.5,28.8333 21.5,32.5C 17.8333,32.5 14.1667,32.5 10.5,32.5C 10.5,29.1667 10.5,25.8333 10.5,22.5C 14.0419,22.8128 17.3752,22.4794 20.5,21.5 Z"/></g>
<g><path style="opacity:0.749" fill="#929df3" d="M 42.5,21.5 C 42.8333,21.5 43.1667,21.5 43.5,21.5C 43.5,25.1667 43.5,28.8333 43.5,32.5C 39.8333,32.5 36.1667,32.5 32.5,32.5C 32.5,29.1667 32.5,25.8333 32.5,22.5C 36.0419,22.8128 39.3752,22.4794 42.5,21.5 Z"/></g>
<g><path style="opacity:0.749" fill="#d065ec" d="M -0.5,32.5 C 3.16667,32.5 6.83333,32.5 10.5,32.5C 10.5,32.8333 10.5,33.1667 10.5,33.5C 9.52056,36.6248 9.18723,39.9581 9.5,43.5C 6.16667,43.5 2.83333,43.5 -0.5,43.5C -0.5,39.8333 -0.5,36.1667 -0.5,32.5 Z"/></g>
<g><path style="opacity:1" fill="#fefffe" d="M 10.5,32.5 C 14.1667,32.5 17.8333,32.5 21.5,32.5C 21.5,36.1667 21.5,39.8333 21.5,43.5C 21.1667,43.5 20.8333,43.5 20.5,43.5C 17.1667,43.5 13.8333,43.5 10.5,43.5C 10.5,40.1667 10.5,36.8333 10.5,33.5C 10.5,33.1667 10.5,32.8333 10.5,32.5 Z"/></g>
<g><path style="opacity:0.749" fill="#b280ef" d="M 21.5,32.5 C 25.1667,32.5 28.8333,32.5 32.5,32.5C 32.5,32.8333 32.5,33.1667 32.5,33.5C 31.5206,36.6248 31.1872,39.9581 31.5,43.5C 28.1667,43.5 24.8333,43.5 21.5,43.5C 21.5,39.8333 21.5,36.1667 21.5,32.5 Z"/></g>
<g><path style="opacity:1" fill="#fefffe" d="M 32.5,32.5 C 36.1667,32.5 39.8333,32.5 43.5,32.5C 43.5,36.1667 43.5,39.8333 43.5,43.5C 43.1667,43.5 42.8333,43.5 42.5,43.5C 39.1667,43.5 35.8333,43.5 32.5,43.5C 32.5,40.1667 32.5,36.8333 32.5,33.5C 32.5,33.1667 32.5,32.8333 32.5,32.5 Z"/></g>
<g><path style="opacity:0.749" fill="#8fa0f4" d="M 43.5,32.5 C 47.5,32.5 51.5,32.5 55.5,32.5C 55.5,36.1667 55.5,39.8333 55.5,43.5C 51.5,43.5 47.5,43.5 43.5,43.5C 43.5,39.8333 43.5,36.1667 43.5,32.5 Z"/></g>
<g><path style="opacity:1" fill="#000000" d="M 10.5,33.5 C 10.5,36.8333 10.5,40.1667 10.5,43.5C 13.8333,43.5 17.1667,43.5 20.5,43.5C 17.3752,44.4794 14.0419,44.8128 10.5,44.5C 9.83333,44.5 9.5,44.1667 9.5,43.5C 9.18723,39.9581 9.52056,36.6248 10.5,33.5 Z"/></g>
<g><path style="opacity:1" fill="#000000" d="M 32.5,33.5 C 32.5,36.8333 32.5,40.1667 32.5,43.5C 35.8333,43.5 39.1667,43.5 42.5,43.5C 39.3752,44.4794 36.0419,44.8128 32.5,44.5C 31.8333,44.5 31.5,44.1667 31.5,43.5C 31.1872,39.9581 31.5206,36.6248 32.5,33.5 Z"/></g>
<g><path style="opacity:0.749" fill="#d065ec" d="M 20.5,43.5 C 20.8333,43.5 21.1667,43.5 21.5,43.5C 21.5,47.1667 21.5,50.8333 21.5,54.5C 17.8333,54.5 14.1667,54.5 10.5,54.5C 10.5,51.1667 10.5,47.8333 10.5,44.5C 14.0419,44.8128 17.3752,44.4794 20.5,43.5 Z"/></g>
<g><path style="opacity:0.749" fill="#b280ef" d="M 42.5,43.5 C 42.8333,43.5 43.1667,43.5 43.5,43.5C 43.5,47.1667 43.5,50.8333 43.5,54.5C 39.8333,54.5 36.1667,54.5 32.5,54.5C 32.5,51.1667 32.5,47.8333 32.5,44.5C 36.0419,44.8128 39.3752,44.4794 42.5,43.5 Z"/></g>
</svg>
